<?xml version="1.0" encoding="UTF-8" standalone="no"?>
<svg xmlns:dc="http://purl.org/dc/elements/1.1/" xmlns:cc="http://creativecommons.org/ns#" xmlns:rdf="http://www.w3.org/1999/02/22-rdf-syntax-ns#" xmlns:svg="http://www.w3.org/2000/svg" xmlns="http://www.w3.org/2000/svg" viewBox="0 0 752.28259 651.97818" height="651.97821" width="752.28259" xml:space="preserve" version="1.1" id="svg2"><metadata id="metadata8"><rdf:RDF><cc:Work rdf:about=""><dc:format>image/svg+xml</dc:format><dc:type rdf:resource="http://purl.org/dc/dcmitype/StillImage"/><dc:title/></cc:Work></rdf:RDF></metadata><defs id="defs6"><clipPath id="clipPath16" clipPathUnits="userSpaceOnUse"><path id="path18" d="m 0,841.89 595.276,0 L 595.276,0 0,0 0,841.89 Z"/></clipPath><clipPath id="clipPath24" clipPathUnits="userSpaceOnUse"><path id="path26" d="m 513.763,517.478 c 0,114.184 -96.941,206.748 -216.522,206.748 -119.58,0 -216.519,-92.564 -216.519,-206.748 l 433.041,0 z"/></clipPath><clipPath id="clipPath110" clipPathUnits="userSpaceOnUse"><path id="path112" d="m 0,841.89 595.276,0 L 595.276,0 0,0 0,841.89 Z"/></clipPath></defs><g transform="matrix(1.25,0,0,-1.25,2.2289853,972.95204)" id="g10"><g transform="translate(0,-24)" id="g12"><g clip-path="url(#clipPath16)" id="g14"><g id="g20"><g clip-path="url(#clipPath24)" id="g22"><path id="path28" style="fill:#8210d2;fill-opacity:1;fill-rule:nonzero;stroke:none" d="m 524.476,685.885 -451.527,0 0,43.363 451.527,0 0,-43.363 z"/><path id="path30" style="fill:none;stroke:#000000;stroke-width:6;stroke-linecap:butt;stroke-linejoin:miter;stroke-miterlimit:4;stroke-dasharray:none;stroke-opacity:1" d="m 524.476,685.885 -451.528,0 0,43.364 451.528,0 0,-43.364 z"/><path id="path32" style="fill:#5710d2;fill-opacity:1;fill-rule:nonzero;stroke:none" d="m 524.475,642.522 -451.526,0 0,43.363 451.526,0 0,-43.363 z"/><path id="path34" style="fill:none;stroke:#000000;stroke-width:6;stroke-linecap:butt;stroke-linejoin:miter;stroke-miterlimit:4;stroke-dasharray:none;stroke-opacity:1" d="m 524.475,642.522 -451.527,0 0,43.363 451.527,0 0,-43.363 z"/><path id="path36" style="fill:#3b10d2;fill-opacity:1;fill-rule:nonzero;stroke:none" d="m 524.478,599.159 -451.529,0 0,43.363 451.529,0 0,-43.363 z"/><path id="path38" style="fill:none;stroke:#000000;stroke-width:6;stroke-linecap:butt;stroke-linejoin:miter;stroke-miterlimit:4;stroke-dasharray:none;stroke-opacity:1" d="m 524.478,599.159 -451.53,0 0,43.363 451.53,0 0,-43.363 z"/><path id="path40" style="fill:#2b10d2;fill-opacity:1;fill-rule:nonzero;stroke:none" d="m 524.476,555.796 -451.527,0 0,43.363 451.527,0 0,-43.363 z"/><path id="path42" style="fill:none;stroke:#000000;stroke-width:6;stroke-linecap:butt;stroke-linejoin:miter;stroke-miterlimit:4;stroke-dasharray:none;stroke-opacity:1" d="m 524.476,555.796 -451.528,0 0,43.363 451.528,0 0,-43.363 z"/><path id="path44" style="fill:#0010d2;fill-opacity:1;fill-rule:nonzero;stroke:none" d="m 524.475,512.433 -451.526,0 0,43.363 451.526,0 0,-43.363 z"/><path id="path46" style="fill:none;stroke:#000000;stroke-width:6;stroke-linecap:butt;stroke-linejoin:miter;stroke-miterlimit:4;stroke-dasharray:none;stroke-opacity:1" d="m 524.475,512.433 -451.527,0 0,43.363 451.527,0 0,-43.363 z"/><path id="path48" style="fill:#ffff00;fill-opacity:1;fill-rule:nonzero;stroke:none" d="M 500.45,826.48 199.672,558.33 208.824,548.561 520.069,804.244 500.45,826.48 Z"/><path id="path50" style="fill:none;stroke:#000000;stroke-width:6;stroke-linecap:butt;stroke-linejoin:miter;stroke-miterlimit:4;stroke-dasharray:none;stroke-opacity:1" d="M 500.45,826.48 199.672,558.33 208.824,548.561 520.069,804.244 500.45,826.48 Z"/><path id="path52" style="fill:#ff0000;fill-opacity:1;fill-rule:nonzero;stroke:none" d="M 520.069,804.244 208.716,548.667 217.207,538.37 542.708,775.463 520.069,804.244 Z"/><path id="path54" style="fill:none;stroke:#000000;stroke-width:6;stroke-linecap:butt;stroke-linejoin:miter;stroke-miterlimit:4;stroke-dasharray:none;stroke-opacity:1" d="M 520.069,804.244 208.716,548.667 217.207,538.37 542.708,775.463 520.069,804.244 Z"/><path id="path56" style="fill:#ffff00;fill-opacity:1;fill-rule:nonzero;stroke:none" d="M 542.708,775.463 217.207,538.37 l 7.799,-10.786 338.549,217.621 -20.847,30.258 z"/><path id="path58" style="fill:none;stroke:#000000;stroke-width:6;stroke-linecap:butt;stroke-linejoin:miter;stroke-miterlimit:4;stroke-dasharray:none;stroke-opacity:1" d="M 542.708,775.463 217.207,538.37 l 7.799,-10.786 338.549,217.621 -20.847,30.258 z"/><path id="path60" style="fill:#ff0000;fill-opacity:1;fill-rule:nonzero;stroke:none" d="M 563.555,745.205 225.006,527.584 232.078,516.356 582.436,713.68 563.555,745.205 Z"/><path id="path62" style="fill:none;stroke:#000000;stroke-width:6;stroke-linecap:butt;stroke-linejoin:miter;stroke-miterlimit:4;stroke-dasharray:none;stroke-opacity:1" d="M 563.555,745.205 225.006,527.584 232.078,516.356 582.436,713.68 563.555,745.205 Z"/><path id="path64" style="fill:#ffff00;fill-opacity:1;fill-rule:nonzero;stroke:none" d="M 582.436,713.68 232.078,516.356 238.396,504.729 596.275,687.311 582.436,713.68 Z"/><path id="path66" style="fill:none;stroke:#000000;stroke-width:6;stroke-linecap:butt;stroke-linejoin:miter;stroke-miterlimit:4;stroke-dasharray:none;stroke-opacity:1" d="M 582.436,713.68 232.078,516.356 238.396,504.729 596.275,687.311 582.436,713.68 Z"/><path id="path68" style="fill:#ffffff;fill-opacity:1;fill-rule:nonzero;stroke:none" d="m 138.311,583.369 7.496,-15.189 16.763,-2.436 -12.13,-11.823 2.864,-16.695 -14.993,7.882 -14.994,-7.882 2.864,16.695 -12.13,11.823 16.763,2.436 7.497,15.189 z"/><path id="path70" style="fill:none;stroke:#000000;stroke-width:6;stroke-linecap:butt;stroke-linejoin:miter;stroke-miterlimit:4;stroke-dasharray:none;stroke-opacity:1" d="m 138.311,583.369 7.496,-15.189 16.763,-2.436 -12.13,-11.823 2.864,-16.695 -14.993,7.882 -14.994,-7.882 2.864,16.695 -12.13,11.823 16.763,2.436 7.497,15.189 z"/><path id="path72" style="fill:#ffffff;fill-opacity:1;fill-rule:nonzero;stroke:none" d="m 198.935,670.586 7.497,-15.189 16.762,-2.436 -12.13,-11.823 2.864,-16.695 -14.993,7.882 -14.993,-7.882 2.864,16.695 -12.13,11.823 16.762,2.436 7.497,15.189 z"/><path id="path74" style="fill:none;stroke:#000000;stroke-width:6;stroke-linecap:butt;stroke-linejoin:miter;stroke-miterlimit:4;stroke-dasharray:none;stroke-opacity:1" d="m 198.935,670.586 7.497,-15.189 16.762,-2.436 -12.13,-11.823 2.864,-16.695 -14.993,7.882 -14.993,-7.882 2.864,16.695 -12.13,11.823 16.762,2.436 7.497,15.189 z"/><path id="path76" style="fill:#ffffff;fill-opacity:1;fill-rule:nonzero;stroke:none" d="m 277.033,713.669 7.496,-15.19 16.764,-2.435 -12.131,-11.823 2.864,-16.696 -14.993,7.883 -14.993,-7.883 2.864,16.696 -12.13,11.823 16.763,2.435 7.496,15.19 z"/><path id="path78" style="fill:none;stroke:#000000;stroke-width:6;stroke-linecap:butt;stroke-linejoin:miter;stroke-miterlimit:4;stroke-dasharray:none;stroke-opacity:1" d="m 277.033,713.669 7.496,-15.19 16.764,-2.435 -12.131,-11.823 2.864,-16.696 -14.993,7.883 -14.993,-7.883 2.864,16.696 -12.13,11.823 16.763,2.435 7.496,15.19 z"/><path id="path80" style="fill:#ffffff;fill-opacity:1;fill-rule:nonzero;stroke:none" d="m 441.926,582.742 7.496,-15.189 16.763,-2.436 -12.13,-11.823 2.863,-16.695 -14.992,7.882 -14.994,-7.882 2.864,16.695 -12.13,11.823 16.763,2.436 7.497,15.189 z"/><path id="path82" style="fill:none;stroke:#000000;stroke-width:6;stroke-linecap:butt;stroke-linejoin:miter;stroke-miterlimit:4;stroke-dasharray:none;stroke-opacity:1" d="m 441.926,582.742 7.496,-15.189 16.763,-2.436 -12.13,-11.823 2.863,-16.695 -14.992,7.882 -14.994,-7.882 2.864,16.695 -12.13,11.823 16.763,2.436 7.497,15.189 z"/></g></g><path id="path84" style="fill:none;stroke:#000000;stroke-width:6;stroke-linecap:butt;stroke-linejoin:miter;stroke-miterlimit:4;stroke-dasharray:none;stroke-opacity:1" d="m 513.763,517.478 c 0,114.183 -96.941,206.748 -216.522,206.748 -119.58,0 -216.519,-92.565 -216.519,-206.748 l 433.041,0 z"/><path id="path86" style="fill:#d59758;fill-opacity:1;fill-rule:nonzero;stroke:none" d="m 234.51,595.749 -7.729,-6.9 -8.427,0.703 -6.535,-13.743 -11.489,-6.518 -0.901,-14.908 -2.939,-9.034 5.867,-22.01 11.084,-7.626 1.244,-8.933 22.859,-8.011 7.491,3.697 19.906,4.631 8.585,9.053 10.025,6.602 7.424,11.434 -9.219,13.675 0.86,18.183 -11.651,6.586 -8.671,12.345 -14.959,2.992 -12.825,7.782 z"/><path id="path88" style="fill:none;stroke:#000000;stroke-width:6;stroke-linecap:butt;stroke-linejoin:miter;stroke-miterlimit:4;stroke-dasharray:none;stroke-opacity:1" d="m 234.51,595.749 -7.729,-6.9 -8.427,0.703 -6.535,-13.743 -11.489,-6.518 -0.901,-14.908 -2.939,-9.034 5.867,-22.01 11.084,-7.626 1.244,-8.933 22.859,-8.011 7.491,3.697 19.906,4.631 8.585,9.053 10.025,6.602 7.424,11.434 -9.219,13.675 0.86,18.183 -11.651,6.586 -8.671,12.345 -14.959,2.992 -12.825,7.782 z"/><path id="path90" style="fill:#d59758;fill-opacity:1;fill-rule:nonzero;stroke:none" d="m 251.426,510.431 22.129,-3.162 4.311,20.69"/><path id="path92" style="fill:none;stroke:#000000;stroke-width:6;stroke-linecap:butt;stroke-linejoin:miter;stroke-miterlimit:4;stroke-dasharray:none;stroke-opacity:1" d="m 251.426,510.431 22.129,-3.162 4.311,20.69"/><path id="path94" style="fill:#d59758;fill-opacity:1;fill-rule:nonzero;stroke:none" d="m 208.608,558.133 -16.092,-15.518 20.115,-14.368"/><path id="path96" style="fill:none;stroke:#000000;stroke-width:6;stroke-linecap:butt;stroke-linejoin:miter;stroke-miterlimit:4;stroke-dasharray:none;stroke-opacity:1" d="m 208.608,558.133 -16.092,-15.518 20.115,-14.368"/><path id="path98" style="fill:#d59758;fill-opacity:1;fill-rule:nonzero;stroke:none" d="m 239.644,582.56 26.438,4.31 5.747,-27.013"/><path id="path100" style="fill:none;stroke:#000000;stroke-width:6;stroke-linecap:butt;stroke-linejoin:miter;stroke-miterlimit:4;stroke-dasharray:none;stroke-opacity:1" d="m 239.644,582.56 26.438,4.31 5.747,-27.013"/><path id="path102" style="fill:#d59758;fill-opacity:1;fill-rule:nonzero;stroke:none" d="m 225.276,539.741 16.38,-10.058 22.127,11.208"/><path id="path104" style="fill:none;stroke:#000000;stroke-width:6;stroke-linecap:butt;stroke-linejoin:miter;stroke-miterlimit:4;stroke-dasharray:none;stroke-opacity:1" d="m 225.276,539.741 16.38,-10.058 22.127,11.208"/></g></g><path id="path114" style="fill:#000000;fill-opacity:1;fill-rule:nonzero;stroke:none" d="m 116.853,436.437 c 0,2.26 -0.915,3.991 -2.745,5.194 -1.652,1.086 -3.821,1.6 -6.505,1.541 l -0.635,-13.25 c 6.59,-0.234 9.885,1.937 9.885,6.515 m -1.438,-20.872 c 0,3.404 -2.442,5.107 -7.326,5.107 -0.501,0 -1.016,-0.029 -1.545,-0.088 l -0.254,-10.787 c 6.083,-0.263 9.125,1.659 9.125,5.768 m 19.313,29.129 c 0,-5.272 -1.255,-9.826 -3.763,-13.662 -2.136,-3.222 -4.8,-5.506 -7.993,-6.853 2.05,-0.88 3.72,-2.331 5.009,-4.353 1.29,-2.023 1.934,-4.177 1.934,-6.463 0,-5.688 -3.032,-9.85 -9.096,-12.487 -4.687,-2.053 -10.84,-3.078 -18.456,-3.078 -6.562,0 -13.607,0.541 -21.135,1.625 -0.206,6.826 -0.63,17.958 -1.274,33.398 -0.439,8.291 -1.099,19.658 -1.976,34.101 5.563,1.083 12.606,1.625 21.127,1.625 23.749,0 35.623,-7.951 35.623,-23.853"/><path id="path116" style="fill:#000000;fill-opacity:1;fill-rule:nonzero;stroke:none" d="m 170.405,466.922 -1.724,-35.903 c -0.326,-7.734 -0.709,-18.267 -1.151,-31.596 l -24.625,0 -3,67.499 30.5,0 z"/><path id="path118" style="fill:#000000;fill-opacity:1;fill-rule:nonzero;stroke:none" d="m 234.944,428.297 c -0.289,-2.49 -0.722,-7.193 -1.3,-14.107 -0.29,-4.131 -0.565,-9.024 -0.825,-14.679 -3.922,-1.143 -9.644,-1.713 -17.167,-1.713 -11.181,0 -20.269,2.517 -27.264,7.557 -8.254,6.006 -12.381,14.94 -12.381,26.806 0,11.365 3.617,20.242 10.852,26.629 6.795,6.004 15.745,9.007 26.846,9.007 4.189,0 8.685,-0.323 13.489,-0.967 l 2.375,-27.756 c -1.931,0.732 -4.682,1.098 -8.252,1.098 -4.536,0 -8.632,-1.39 -12.29,-4.172 -4.097,-3.132 -6.145,-7.115 -6.145,-11.945 0,-4.568 1.742,-8.096 5.227,-10.584 2.928,-2.108 6.311,-3.103 10.148,-2.986 l -0.697,8.84 c -0.175,1.818 -0.568,4.808 -1.178,8.972 l 18.562,0 z"/><path id="path120" style="fill:#000000;fill-opacity:1;fill-rule:nonzero;stroke:none" d="m 281.359,439.297 c -2.165,0.5 -3.802,0.75 -4.914,0.75 -1.375,0 -2.632,-0.468 -3.773,-1.406 -1.375,-1.143 -2.063,-2.623 -2.063,-4.439 0,-1.408 1.26,-4.119 3.782,-8.132 2.52,-4.015 3.781,-7.707 3.781,-11.076 0,-4.895 -1.862,-8.91 -5.585,-12.044 -3.547,-3.019 -7.93,-4.527 -13.149,-4.527 -4.808,0 -8.355,0.336 -10.641,1.008 -0.263,1.345 -0.715,3.538 -1.357,6.58 -0.408,1.638 -0.977,3.817 -1.706,6.536 3.225,-0.792 5.395,-1.187 6.509,-1.187 4.369,0 6.554,1.655 6.554,4.968 0,2.403 -0.88,4.557 -2.64,6.463 -2.875,2.52 -5.75,5.055 -8.625,7.606 -5.574,4.924 -8.36,10.77 -8.36,17.542 0,7.063 2.637,12.413 7.911,16.048 4.6,3.165 10.724,4.748 18.372,4.748 4.336,0 9.2,-0.63 14.592,-1.89 l 1.312,-27.548 z"/><path id="path122" style="fill:#000000;fill-opacity:1;fill-rule:nonzero;stroke:none" d="m 340.686,466.922 -1.25,-27.687 c -1.144,0.178 -2.977,0.401 -5.498,0.67 -1.555,0.089 -4.077,0.178 -7.565,0.267 -0.176,-1.727 -0.482,-5.899 -0.921,-12.514 -0.322,-6.412 -0.848,-15.824 -1.579,-28.235 l -21.25,0 c -0.228,5.912 -0.658,15.207 -1.287,27.883 -0.286,4.391 -0.586,8.68 -0.9,12.866 l -6.956,-0.267 -6.294,-0.67 -1.125,27.687 54.625,0 z"/><path id="path124" style="fill:#000000;fill-opacity:1;fill-rule:nonzero;stroke:none" d="m 383.373,426.844 c 0,8.135 -2.756,12.203 -8.267,12.203 -5.364,0 -8.045,-4.097 -8.045,-12.291 0,-3.277 0.703,-6.336 2.11,-9.173 1.582,-3.191 3.531,-4.786 5.848,-4.786 2.256,0 4.25,1.624 5.98,4.872 1.582,2.956 2.374,6.014 2.374,9.175 m 21.125,7.759 c 0,-10.34 -2.666,-19.082 -7.997,-26.228 -5.596,-7.468 -12.758,-11.202 -21.487,-11.202 -8.993,0 -16.273,3.764 -21.838,11.29 -5.244,7.087 -7.865,15.8 -7.865,26.14 0,11.041 2.855,19.711 8.568,26.008 5.39,5.916 12.434,8.874 21.135,8.874 8.553,0 15.525,-2.973 20.916,-8.918 5.712,-6.326 8.568,-14.982 8.568,-25.964"/><path id="path126" style="fill:#000000;fill-opacity:1;fill-rule:nonzero;stroke:none" d="m 464.081,466.922 c -0.41,-5.918 -0.981,-16.244 -1.714,-30.979 -0.439,-10.84 -0.805,-23.305 -1.098,-37.395 -3.84,3.019 -9.686,7.519 -17.54,13.5 -3.399,2.375 -8.468,5.937 -15.208,10.687 l -0.44,-23.312 -14.125,0 c -0.235,5.947 -0.778,17.167 -1.629,33.661 -0.734,13.36 -1.483,24.639 -2.246,33.838 l 22,0 16.375,-15.5 c 0,3.552 -0.059,6.341 -0.176,8.367 -0.088,1.791 -0.263,4.169 -0.527,7.133 l 16.328,0 z"/><path id="path128" style="fill:#000000;fill-opacity:1;fill-rule:nonzero;stroke:none" d="m 516.068,466.922 -1.875,-27.812 c -1.085,0.178 -3.429,0.488 -7.035,0.932 -2.463,0.236 -5.159,0.383 -8.09,0.443 l -0.634,-8.438 c 3.218,-0.088 8.472,-0.014 15.759,0.22 -0.322,-1.086 -0.835,-3.111 -1.538,-6.075 -0.41,-1.791 -0.776,-3.859 -1.098,-6.207 -0.848,0.204 -2.968,0.467 -6.36,0.787 -1.579,0.088 -3.918,0.117 -7.017,0.088 l -0.424,-9.75 c 2.189,0.029 6.219,0.22 12.088,0.571 1.109,0.088 2.933,0.439 5.474,1.054 -0.235,-0.908 -0.778,-3.091 -1.629,-6.547 -0.411,-1.787 -0.91,-4.042 -1.496,-6.765 l -39.25,0 -1.279,34.452 c -0.236,7.881 -0.81,18.897 -1.721,33.047 l 46.125,0 z"/><path id="path130" style="fill:#000000;fill-opacity:1;fill-rule:nonzero;stroke:none" d="m 80.722,379.016 0,-22.643 c 0,-12.525 10.153,-22.678 22.676,-22.678 l 387.687,0 c 12.525,0 22.678,10.153 22.678,22.678 l 0,22.643 -433.041,0 z"/><path id="path132" style="fill:none;stroke:#000000;stroke-width:6;stroke-linecap:butt;stroke-linejoin:miter;stroke-miterlimit:4;stroke-dasharray:none;stroke-opacity:1" d="m 80.722,379.016 0,-22.643 c 0,-12.525 10.153,-22.678 22.676,-22.678 l 387.687,0 c 12.525,0 22.678,10.153 22.678,22.678 l 0,22.643 -433.041,0 z"/><g id="flowRoot4285" style="font-style:normal;font-variant:normal;font-weight:normal;font-stretch:normal;font-size:25px;line-height:125%;font-family:Santana-BlackCondensed;-inkscape-font-specification:Santana-BlackCondensed;letter-spacing:0px;word-spacing:0px;fill:#ffffff;fill-opacity:1;stroke:none;stroke-width:1px;stroke-linecap:butt;stroke-linejoin:miter;stroke-opacity:1" transform="matrix(0.8,0,0,-0.8,2.5218091,867.69573)"><path id="path4294" style="font-style:normal;font-variant:normal;font-weight:900;font-stretch:normal;font-size:30px;font-family:Santana-Black;-inkscape-font-specification:'Santana-Black Heavy';letter-spacing:5px;fill:#ffffff;fill-opacity:1" d="m 134.10187,646.43622 q 0.36,0 0.36,-0.36 l 0,-4.41 q 0,-0.33 -0.36,-0.33 l -5.85,0 1.29,-0.99 q 0.87,-0.66 1.68,-1.44 0.81001,-0.81 1.44,-1.71 0.63,-0.9 1.02,-1.89 0.39,-1.02 0.39,-2.16 0,-1.62 -0.57,-2.85 -0.57,-1.23 -1.59,-2.07 -0.99,-0.84 -2.4,-1.26 -1.41,-0.42 -3.11999,-0.42 -2.34001,0 -4.26001,0.69 -1.89,0.66 -3.14999,1.59 -0.24001,0.18 -0.12001,0.45 l 1.65001,3.81 q 0.06,0.15 0.20999,0.21 0.15001,0.06 0.3,-0.06 0.84,-0.6 1.92,-1.14 1.08,-0.54 2.34001,-0.54 1.34999,0 2.01,0.57 0.66,0.57 0.63,1.47 -0.03,1.23 -1.59001,2.82 -1.56,1.59 -4.59,3.99 l -2.81999,2.22 q -0.06,0.06 -0.12001,0.15 -0.03,0.06 -0.03,0.12 l 0,3.18 q 0,0.36 0.36,0.36 l 14.97,0 z"/><path id="path4296" style="font-style:normal;font-variant:normal;font-weight:900;font-stretch:normal;font-size:30px;font-family:Santana-Black;-inkscape-font-specification:'Santana-Black Heavy';letter-spacing:5px;fill:#ffffff;fill-opacity:1" d="m 150.11891,646.79622 q 2.22,0 3.78,-0.84 1.59,-0.84 2.58,-2.22 1.02,-1.41 1.47,-3.24 0.48,-1.83 0.48,-3.84 0,-1.98 -0.48,-3.81 -0.45,-1.83 -1.47,-3.21 -0.99,-1.41 -2.58,-2.25 -1.56,-0.84 -3.78,-0.84 -2.22,0 -3.81,0.84 -1.56,0.84 -2.58,2.25 -0.99,1.38 -1.47,3.21 -0.45,1.83 -0.45,3.81 0,2.01 0.45,3.84 0.48,1.83 1.47,3.24 1.02,1.38 2.58,2.22 1.59,0.84 3.81,0.84 z m -0.03,-4.65 q -0.96,0 -1.56,-1.32 -0.6,-1.32 -0.6,-4.17 0,-2.85 0.6,-4.14 0.6,-1.32 1.56,-1.32 0.99,0 1.56,1.32 0.6,1.29 0.6,4.14 0,2.85 -0.6,4.17 -0.57,1.32 -1.56,1.32 z"/><path id="path4298" style="font-style:normal;font-variant:normal;font-weight:900;font-stretch:normal;font-size:30px;font-family:Santana-Black;-inkscape-font-specification:'Santana-Black Heavy';letter-spacing:5px;fill:#ffffff;fill-opacity:1" d="m 169.89883,646.07622 q 0,0.36 0.33,0.36 l 5.25,0 q 0.36,0 0.36,-0.36 l 0,-18.84 q 0,-0.36 -0.36,-0.36 l -4.47,0 -5.73,2.49 q -0.12,0.03 -0.18,0.15 -0.06,0.12 -0.03,0.24 l 0.87,4.02 q 0.06,0.18 0.21,0.24 0.15,0.06 0.3,0 0.78,-0.33 1.65,-0.72 0.9,-0.42 1.74,-0.78 l 0.06,13.56 z"/><path id="path4300" style="font-style:normal;font-variant:normal;font-weight:900;font-stretch:normal;font-size:30px;font-family:Santana-Black;-inkscape-font-specification:'Santana-Black Heavy';letter-spacing:5px;fill:#ffffff;fill-opacity:1" d="m 198.76008,646.43622 q 0.36,0 0.36,-0.36 l 0,-4.41 q 0,-0.33 -0.36,-0.33 l -5.85,0 1.29,-0.99 q 0.87,-0.66 1.68,-1.44 0.81,-0.81 1.44,-1.71 0.63,-0.9 1.02,-1.89 0.39,-1.02 0.39,-2.16 0,-1.62 -0.57,-2.85 -0.57,-1.23 -1.59,-2.07 -0.99,-0.84 -2.4,-1.26 -1.41,-0.42 -3.12,-0.42 -2.34,0 -4.26,0.69 -1.89,0.66 -3.15,1.59 -0.24,0.18 -0.12,0.45 l 1.65,3.81 q 0.06,0.15 0.21,0.21 0.15,0.06 0.3,-0.06 0.84,-0.6 1.92,-1.14 1.08,-0.54 2.34,-0.54 1.35,0 2.01,0.57 0.66,0.57 0.63,1.47 -0.03,1.23 -1.59,2.82 -1.56,1.59 -4.59,3.99 l -2.82,2.22 q -0.06,0.06 -0.12,0.15 -0.03,0.06 -0.03,0.12 l 0,3.18 q 0,0.36 0.36,0.36 l 14.97,0 z"/><path id="path4302" style="font-style:normal;font-variant:normal;font-weight:900;font-stretch:normal;font-size:30px;font-family:Santana-Black;-inkscape-font-specification:'Santana-Black Heavy';letter-spacing:5px;fill:#ffffff;fill-opacity:1" d="m 223.10453,646.07622 q 0,0.36 0.33,0.36 l 5.49,0 q 0.36,0 0.36,-0.36 l 0,-14.73 5.25,0 q 0.36,0 0.36,-0.33 l 0,-4.47 q 0,-0.36 -0.36,-0.36 l -16.62,0 q -0.33,0 -0.33,0.36 l 0,4.47 q 0,0.33 0.33,0.33 l 5.19,0 0,14.73 z"/><path id="path4304" style="font-style:normal;font-variant:normal;font-weight:900;font-stretch:normal;font-size:30px;font-family:Santana-Black;-inkscape-font-specification:'Santana-Black Heavy';letter-spacing:5px;fill:#ffffff;fill-opacity:1" d="m 241.87594,645.02622 q -0.03,0.09 0.03,0.21 0.06,0.12 0.18,0.18 0.48,0.24 1.17,0.48 0.69,0.24 1.53,0.45 0.87,0.21 1.83,0.33 0.96,0.12 1.95,0.12 2.43,0 4.17,-0.54 1.74,-0.57 2.85,-1.5 1.11,-0.93 1.62,-2.13 0.54,-1.2 0.54,-2.49 0,-2.34 -1.44,-3.87 -1.41,-1.53 -4.38,-2.46 -1.83,-0.57 -2.7,-0.9 -0.87,-0.36 -0.87,-0.96 0,-0.51 0.57,-0.75 0.57,-0.27 1.62,-0.27 1.62,0 2.79,0.36 1.2,0.33 1.89,0.63 0.36,0.15 0.48,-0.24 l 1.26,-4.29 q 0.09,-0.3 -0.21,-0.42 -1.14,-0.51 -2.61,-0.81 -1.44,-0.3 -3.51,-0.3 -1.98,0 -3.57,0.48 -1.59,0.48 -2.73,1.35 -1.11,0.87 -1.71,2.07 -0.6,1.17 -0.6,2.58 0,1.32 0.51,2.34 0.51,1.02 1.38,1.8 0.9,0.78 2.04,1.35 1.17,0.54 2.43,0.9 3,0.84 3,1.71 0,1.2 -2.4,1.2 -1.65,0 -3.09,-0.42 -1.44,-0.42 -2.4,-0.9 -0.15,-0.09 -0.3,0 -0.12,0.06 -0.18,0.24 l -1.14,4.47 z"/><path id="path4306" style="font-style:normal;font-variant:normal;font-weight:900;font-stretch:normal;font-size:30px;font-family:Santana-Black;-inkscape-font-specification:'Santana-Black Heavy';letter-spacing:5px;fill:#ffffff;fill-opacity:1" d="m 279.16578,646.43622 q 0.36,0 0.36,-0.36 l 0,-3.87 1.83,0 q 0.33,0 0.33,-0.36 l 0,-3.96 q 0,-0.36 -0.33,-0.36 l -1.83,0 0,-10.29 q 0,-0.36 -0.36,-0.36 l -7.26,0 q -0.18,0 -0.3,0.18 l -6.75,11.22 0,3.57 q 0,0.36 0.33,0.36 l 8.4,0 0,3.87 q 0,0.36 0.33,0.36 l 5.25,0 z m -8.31,-8.91 q 0.39,-0.78 0.66,-1.32 0.3,-0.54 0.69,-1.32 l 0,0.03 q 0.39,-0.69 0.69,-1.35 0.3,-0.69 0.63,-1.35 0.03,-0.06 0.03,-0.09 0.03,-0.06 0.06,-0.12 -0.03,0.69 -0.03,1.35 0,0.63 0,1.26 l 0,2.91 -2.73,0 z"/><path id="path4308" style="font-style:normal;font-variant:normal;font-weight:900;font-stretch:normal;font-size:30px;font-family:Santana-Black;-inkscape-font-specification:'Santana-Black Heavy';letter-spacing:5px;fill:#ffffff;fill-opacity:1" d="m 301.77094,623.99622 q -0.36,0 -0.36,0.33 l 0,29.01 q 0,0.36 0.36,0.36 l 3.69,0 q 0.33,0 0.33,-0.36 l 0,-29.01 q 0,-0.33 -0.33,-0.33 l -3.69,0 z"/><path id="path4310" style="font-style:normal;font-variant:normal;font-weight:900;font-stretch:normal;font-size:30px;font-family:Santana-Black;-inkscape-font-specification:'Santana-Black Heavy';letter-spacing:5px;fill:#ffffff;fill-opacity:1" d="m 336.70422,646.79622 q 2.58,0 4.65,-0.78 2.07,-0.81 3.51,-2.22 1.47,-1.41 2.25,-3.33 0.78,-1.95 0.78,-4.26 0,-2.25 -0.75,-4.14 -0.72,-1.89 -2.13,-3.27 -1.38,-1.38 -3.42,-2.16 -2.01,-0.78 -4.56,-0.78 -2.49,0 -4.53,0.81 -2.04,0.78 -3.48,2.19 -1.44,1.41 -2.25,3.36 -0.78,1.95 -0.78,4.26 0,2.19 0.72,4.08 0.75,1.89 2.13,3.27 1.38,1.38 3.36,2.19 2.01,0.78 4.5,0.78 z m 0.21,-4.95 q -1.02,0 -1.86,-0.42 -0.81,-0.42 -1.38,-1.14 -0.57,-0.75 -0.9,-1.74 -0.3,-1.02 -0.3,-2.19 0,-1.2 0.3,-2.22 0.33,-1.02 0.9,-1.77 0.57,-0.75 1.38,-1.17 0.84,-0.42 1.86,-0.42 1.02,0 1.83,0.42 0.84,0.42 1.41,1.17 0.57,0.75 0.87,1.77 0.33,1.02 0.33,2.22 0,1.17 -0.3,2.19 -0.3,0.99 -0.87,1.74 -0.57,0.72 -1.41,1.14 -0.81,0.42 -1.86,0.42 z"/><path id="path4312" style="font-style:normal;font-variant:normal;font-weight:900;font-stretch:normal;font-size:30px;font-family:Santana-Black;-inkscape-font-specification:'Santana-Black Heavy';letter-spacing:5px;fill:#ffffff;fill-opacity:1" d="m 372.05203,641.24622 q -0.06,-0.18 -0.21,-0.24 -0.12,-0.09 -0.27,-0.03 -0.66,0.27 -1.77,0.48 -1.08,0.18 -2.19,0.18 -2.88,0 -4.44,-1.5 -1.53,-1.5 -1.53,-3.87 0,-1.38 0.48,-2.37 0.48,-0.99 1.26,-1.65 0.81,-0.66 1.86,-0.96 1.05,-0.33 2.22,-0.33 1.35,0 2.37,0.24 1.05,0.21 1.77,0.54 0.15,0.06 0.27,0 0.15,-0.09 0.21,-0.24 l 1.14,-4.23 q 0.06,-0.3 -0.18,-0.42 -0.75,-0.42 -2.28,-0.69 -1.53,-0.3 -3.51,-0.3 -2.49,0 -4.68,0.69 -2.19,0.69 -3.84,2.07 -1.65,1.35 -2.61,3.36 -0.96,2.01 -0.96,4.65 0,2.04 0.69,3.9 0.72,1.83 2.16,3.24 1.44,1.38 3.66,2.22 2.25,0.81 5.31,0.81 2.07,0 3.57,-0.33 1.5,-0.33 2.13,-0.63 0.09,-0.06 0.15,-0.15 0.09,-0.12 0.06,-0.24 l -0.84,-4.2 z"/><path id="path4314" style="font-style:normal;font-variant:normal;font-weight:900;font-stretch:normal;font-size:30px;font-family:Santana-Black;-inkscape-font-specification:'Santana-Black Heavy';letter-spacing:5px;fill:#ffffff;fill-opacity:1" d="m 385.33109,646.07622 q 0,0.36 0.33,0.36 l 5.49,0 q 0.36,0 0.36,-0.36 l 0,-14.73 5.25,0 q 0.36,0 0.36,-0.33 l 0,-4.47 q 0,-0.36 -0.36,-0.36 l -16.62,0 q -0.33,0 -0.33,0.36 l 0,4.47 q 0,0.33 0.33,0.33 l 5.19,0 0,14.73 z"/><path id="path4316" style="font-style:normal;font-variant:normal;font-weight:900;font-stretch:normal;font-size:30px;font-family:Santana-Black;-inkscape-font-specification:'Santana-Black Heavy';letter-spacing:5px;fill:#ffffff;fill-opacity:1" d="m 406.7425,646.79622 q 1.59,0 2.55,-0.96 0.96,-0.99 0.93,-2.49 0,-1.53 -0.96,-2.49 -0.93,-0.99 -2.52,-0.99 -1.59,0 -2.55,0.99 -0.93,0.96 -0.93,2.49 0,1.5 0.93,2.49 0.96,0.96 2.55,0.96 z"/><path id="path4318" style="font-style:normal;font-variant:normal;font-weight:900;font-stretch:normal;font-size:30px;font-family:Santana-Black;-inkscape-font-specification:'Santana-Black Heavy';letter-spacing:5px;fill:#ffffff;fill-opacity:1" d="m 435.33828,646.07622 q 0,0.36 0.33,0.36 l 5.25,0 q 0.36,0 0.36,-0.36 l 0,-18.84 q 0,-0.36 -0.36,-0.36 l -4.47,0 -5.73,2.49 q -0.12,0.03 -0.18,0.15 -0.06,0.12 -0.03,0.24 l 0.87,4.02 q 0.06,0.18 0.21,0.24 0.15,0.06 0.3,0 0.78,-0.33 1.65,-0.72 0.9,-0.42 1.74,-0.78 l 0.06,13.56 z"/><path id="path4320" style="font-style:normal;font-variant:normal;font-weight:900;font-stretch:normal;font-size:30px;font-family:Santana-Black;-inkscape-font-specification:'Santana-Black Heavy';letter-spacing:5px;fill:#ffffff;fill-opacity:1" d="m 464.22883,646.43622 q 0.36,0 0.36,-0.36 l 0,-4.41 q 0,-0.33 -0.36,-0.33 l -5.85,0 1.29,-0.99 q 0.87,-0.66 1.68,-1.44 0.81,-0.81 1.44,-1.71 0.63,-0.9 1.02,-1.89 0.39,-1.02 0.39,-2.16 0,-1.62 -0.57,-2.85 -0.57,-1.23 -1.59,-2.07 -0.99,-0.84 -2.4,-1.26 -1.41,-0.42 -3.12,-0.42 -2.34,0 -4.26,0.69 -1.89,0.66 -3.15,1.59 -0.24,0.18 -0.12,0.45 l 1.65,3.81 q 0.06,0.15 0.21,0.21 0.15,0.06 0.3,-0.06 0.84,-0.6 1.92,-1.14 1.08,-0.54 2.34,-0.54 1.35,0 2.01,0.57 0.66,0.57 0.63,1.47 -0.03,1.23 -1.59,2.82 -1.56,1.59 -4.59,3.99 l -2.82,2.22 q -0.06,0.06 -0.12,0.15 -0.03,0.06 -0.03,0.12 l 0,3.18 q 0,0.36 0.36,0.36 l 14.97,0 z"/><path id="path4322" style="font-style:normal;font-variant:normal;font-weight:900;font-stretch:normal;font-size:30px;font-family:Santana-Black;-inkscape-font-specification:'Santana-Black Heavy';letter-spacing:5px;fill:#ffffff;fill-opacity:1" d="m 477.24516,646.07622 q 0,0.36 0.33,0.36 l 5.49,0 q 0.36,0 0.36,-0.36 l 0,-14.73 5.25,0 q 0.36,0 0.36,-0.33 l 0,-4.47 q 0,-0.36 -0.36,-0.36 l -16.62,0 q -0.33,0 -0.33,0.36 l 0,4.47 q 0,0.33 0.33,0.33 l 5.19,0 0,14.73 z"/><path id="path4324" style="font-style:normal;font-variant:normal;font-weight:900;font-stretch:normal;font-size:30px;font-family:Santana-Black;-inkscape-font-specification:'Santana-Black Heavy';letter-spacing:5px;fill:#ffffff;fill-opacity:1" d="m 496.94656,626.18622 q -0.33,0 -0.33,0.36 l 0,19.53 q 0,0.36 0.33,0.36 l 5.49,0 q 0.36,0 0.36,-0.36 l 0,-7.35 6.66,0 0,7.35 q 0,0.36 0.36,0.36 l 5.49,0 q 0.33,0 0.33,-0.36 l 0,-19.53 q 0,-0.36 -0.33,-0.36 l -5.49,0 q -0.36,0 -0.36,0.36 l 0,6.78 -6.66,0 0,-6.78 q 0,-0.36 -0.36,-0.36 l -5.49,0 z"/><path id="path4326" style="font-style:normal;font-variant:normal;font-weight:900;font-stretch:normal;font-size:30px;font-family:Santana-Black;-inkscape-font-specification:'Santana-Black Heavy';letter-spacing:5px;fill:#ffffff;fill-opacity:1" d="m 550.52766,646.43622 q 0.36,0 0.36,-0.36 l 0,-4.41 q 0,-0.33 -0.36,-0.33 l -5.85,0 1.29,-0.99 q 0.87,-0.66 1.68,-1.44 0.81,-0.81 1.44,-1.71 0.63,-0.9 1.02,-1.89 0.39,-1.02 0.39,-2.16 0,-1.62 -0.57,-2.85 -0.57,-1.23 -1.59,-2.07 -0.99,-0.84 -2.4,-1.26 -1.41,-0.42 -3.12,-0.42 -2.34,0 -4.26,0.69 -1.89,0.66 -3.15,1.59 -0.24,0.18 -0.12,0.45 l 1.65,3.81 q 0.06,0.15 0.21,0.21 0.15,0.06 0.3,-0.06 0.84,-0.6 1.92,-1.14 1.08,-0.54 2.34,-0.54 1.35,0 2.01,0.57 0.66,0.57 0.63,1.47 -0.03,1.23 -1.59,2.82 -1.56,1.59 -4.59,3.99 l -2.82,2.22 q -0.06,0.06 -0.12,0.15 -0.03,0.06 -0.03,0.12 l 0,3.18 q 0,0.36 0.36,0.36 l 14.97,0 z"/><path id="path4328" style="font-style:normal;font-variant:normal;font-weight:900;font-stretch:normal;font-size:30px;font-family:Santana-Black;-inkscape-font-specification:'Santana-Black Heavy';letter-spacing:5px;fill:#ffffff;fill-opacity:1" d="m 566.54469,646.79622 q 2.22,0 3.78,-0.84 1.59,-0.84 2.58,-2.22 1.02,-1.41 1.47,-3.24 0.48,-1.83 0.48,-3.84 0,-1.98 -0.48,-3.81 -0.45,-1.83 -1.47,-3.21 -0.99,-1.41 -2.58,-2.25 -1.56,-0.84 -3.78,-0.84 -2.22,0 -3.81,0.84 -1.56,0.84 -2.58,2.25 -0.99,1.38 -1.47,3.21 -0.45,1.83 -0.45,3.81 0,2.01 0.45,3.84 0.48,1.83 1.47,3.24 1.02,1.38 2.58,2.22 1.59,0.84 3.81,0.84 z m -0.03,-4.65 q -0.96,0 -1.56,-1.32 -0.6,-1.32 -0.6,-4.17 0,-2.85 0.6,-4.14 0.6,-1.32 1.56,-1.32 0.99,0 1.56,1.32 0.6,1.29 0.6,4.14 0,2.85 -0.6,4.17 -0.57,1.32 -1.56,1.32 z"/><path id="path4330" style="font-style:normal;font-variant:normal;font-weight:900;font-stretch:normal;font-size:30px;font-family:Santana-Black;-inkscape-font-specification:'Santana-Black Heavy';letter-spacing:5px;fill:#ffffff;fill-opacity:1" d="m 586.32461,646.07622 q 0,0.36 0.33,0.36 l 5.25,0 q 0.36,0 0.36,-0.36 l 0,-18.84 q 0,-0.36 -0.36,-0.36 l -4.47,0 -5.73,2.49 q -0.12,0.03 -0.18,0.15 -0.06,0.12 -0.03,0.24 l 0.87,4.02 q 0.06,0.18 0.21,0.24 0.15,0.06 0.3,0 0.78,-0.33 1.65,-0.72 0.9,-0.42 1.74,-0.78 l 0.06,13.56 z"/><path id="path4332" style="font-style:normal;font-variant:normal;font-weight:900;font-stretch:normal;font-size:30px;font-family:Santana-Black;-inkscape-font-specification:'Santana-Black Heavy';letter-spacing:5px;fill:#ffffff;fill-opacity:1" d="m 600.27375,626.87622 q -0.36,0 -0.36,0.36 l 0,4.41 q 0,0.36 0.36,0.36 l 8.52,0 -7.95,13.92 q -0.12,0.18 -0.03,0.36 0.09,0.15 0.33,0.15 l 5.97,0 q 0.18,0 0.3,-0.18 l 8.19,-15.57 0,-3.45 q 0,-0.36 -0.36,-0.36 l -14.97,0 z"/></g></g></svg>